<svg id="svg" version="1.1" xmlns="http://www.w3.org/2000/svg" style="display: block;" viewBox="0 0 250 80"><path d="M0,0 L250,0 L250,80 L0,80 Z M13,9 L13,71 L28,71 L28,38 L29,38 L29,41 L30,41 L30,45 L31,45 L31,48 L32,48 L32,51 L33,51 L33,55 L34,55 L34,58 L35,58 L35,61 L36,61 L36,64 L37,64 L37,68 L38,68 L38,71 L53,71 L53,68 L54,68 L54,65 L55,65 L55,62 L56,62 L56,59 L57,59 L57,56 L58,56 L58,53 L59,53 L59,50 L60,50 L60,47 L61,47 L61,44 L62,44 L62,41 L63,41 L63,38 L64,38 L64,71 L79,71 L79,70 L80,70 L80,9 L59,9 L59,11 L58,11 L58,15 L57,15 L57,18 L56,18 L56,21 L55,21 L55,24 L54,24 L54,27 L53,27 L53,30 L52,30 L52,33 L51,33 L51,36 L50,36 L50,39 L49,39 L49,42 L48,42 L48,45 L47,45 L47,48 L45,48 L45,45 L44,45 L44,41 L43,41 L43,38 L42,38 L42,35 L41,35 L41,32 L40,32 L40,28 L39,28 L39,25 L38,25 L38,22 L37,22 L37,19 L36,19 L36,15 L35,15 L35,12 L34,12 L34,9 Z M107,9 L107,11 L108,11 L108,12 L109,12 L109,14 L110,14 L110,16 L111,16 L111,18 L112,18 L112,20 L113,20 L113,22 L114,22 L114,24 L115,24 L115,26 L116,26 L116,27 L117,27 L117,29 L118,29 L118,31 L119,31 L119,33 L120,33 L120,35 L121,35 L121,37 L122,37 L122,39 L123,39 L123,40 L124,40 L124,42 L125,42 L125,44 L126,44 L126,46 L127,46 L127,71 L143,71 L143,46 L144,46 L144,44 L145,44 L145,42 L146,42 L146,40 L147,40 L147,39 L148,39 L148,37 L149,37 L149,35 L150,35 L150,33 L151,33 L151,31 L152,31 L152,29 L153,29 L153,27 L154,27 L154,26 L155,26 L155,24 L156,24 L156,22 L157,22 L157,20 L158,20 L158,18 L159,18 L159,16 L160,16 L160,15 L161,15 L161,13 L162,13 L162,11 L163,11 L163,9 L146,9 L146,10 L145,10 L145,12 L144,12 L144,14 L143,14 L143,16 L142,16 L142,18 L141,18 L141,20 L140,20 L140,22 L139,22 L139,24 L138,24 L138,26 L137,26 L137,28 L136,28 L136,30 L135,30 L135,29 L134,29 L134,27 L133,27 L133,25 L132,25 L132,23 L131,23 L131,21 L130,21 L130,19 L129,19 L129,17 L128,17 L128,15 L127,15 L127,13 L126,13 L126,11 L125,11 L125,10 L124,10 L124,9 Z M191,9 L191,71 L220,71 L220,70 L224,70 L224,69 L227,69 L227,68 L229,68 L229,67 L230,67 L230,66 L232,66 L232,65 L233,65 L233,64 L234,64 L234,63 L235,63 L235,61 L236,61 L236,59 L237,59 L237,56 L238,56 L238,48 L237,48 L237,45 L236,45 L236,43 L235,43 L235,41 L234,41 L234,40 L233,40 L233,39 L231,39 L231,37 L232,37 L232,36 L233,36 L233,35 L234,35 L234,33 L235,33 L235,31 L236,31 L236,20 L235,20 L235,17 L234,17 L234,16 L233,16 L233,15 L232,15 L232,14 L231,14 L231,13 L230,13 L230,12 L228,12 L228,11 L226,11 L226,10 L222,10 L222,9 Z " transform="translate(0,0)" style="fill: #000000;"/><path d="M0,0 L21,0 L21,3 L22,3 L22,6 L23,6 L23,10 L24,10 L24,13 L25,13 L25,16 L26,16 L26,19 L27,19 L27,23 L28,23 L28,26 L29,26 L29,29 L30,29 L30,32 L31,32 L31,36 L32,36 L32,39 L34,39 L34,36 L35,36 L35,33 L36,33 L36,30 L37,30 L37,27 L38,27 L38,24 L39,24 L39,21 L40,21 L40,18 L41,18 L41,15 L42,15 L42,12 L43,12 L43,9 L44,9 L44,6 L45,6 L45,2 L46,2 L46,0 L67,0 L67,61 L66,61 L66,62 L51,62 L51,29 L50,29 L50,32 L49,32 L49,35 L48,35 L48,38 L47,38 L47,41 L46,41 L46,44 L45,44 L45,47 L44,47 L44,50 L43,50 L43,53 L42,53 L42,56 L41,56 L41,59 L40,59 L40,62 L25,62 L25,59 L24,59 L24,55 L23,55 L23,52 L22,52 L22,49 L21,49 L21,46 L20,46 L20,42 L19,42 L19,39 L18,39 L18,36 L17,36 L17,32 L16,32 L16,29 L15,29 L15,62 L0,62 Z M4,3 L4,59 L12,59 L12,24 L11,24 L11,12 L14,12 L14,14 L15,14 L15,17 L16,17 L16,20 L17,20 L17,24 L18,24 L18,27 L19,27 L19,30 L20,30 L20,33 L21,33 L21,37 L22,37 L22,40 L23,40 L23,43 L24,43 L24,46 L25,46 L25,51 L26,51 L26,53 L27,53 L27,56 L28,56 L28,58 L37,58 L37,57 L38,57 L38,54 L39,54 L39,51 L40,51 L40,48 L41,48 L41,46 L42,46 L42,42 L43,42 L43,39 L44,39 L44,36 L45,36 L45,33 L46,33 L46,30 L47,30 L47,27 L48,27 L48,23 L49,23 L49,20 L50,20 L50,17 L51,17 L51,14 L52,14 L52,13 L55,13 L55,58 L63,58 L63,3 L49,3 L49,4 L48,4 L48,7 L47,7 L47,10 L46,10 L46,13 L45,13 L45,16 L44,16 L44,19 L43,19 L43,22 L42,22 L42,25 L41,25 L41,28 L40,28 L40,31 L39,31 L39,34 L38,34 L38,37 L37,37 L37,40 L36,40 L36,43 L35,43 L35,47 L34,47 L34,48 L32,48 L32,47 L31,47 L31,43 L30,43 L30,40 L29,40 L29,37 L28,37 L28,34 L27,34 L27,30 L26,30 L26,27 L25,27 L25,24 L24,24 L24,21 L23,21 L23,17 L22,17 L22,14 L21,14 L21,11 L20,11 L20,9 L19,9 L19,6 L18,6 L18,3 Z " transform="translate(13,9)" style="fill: #FFDADA;"/><path d="M0,0 L14,0 L14,3 L15,3 L15,6 L16,6 L16,8 L17,8 L17,11 L18,11 L18,14 L19,14 L19,18 L20,18 L20,21 L21,21 L21,24 L22,24 L22,27 L23,27 L23,31 L24,31 L24,34 L25,34 L25,37 L26,37 L26,40 L27,40 L27,44 L28,44 L28,45 L30,45 L30,44 L31,44 L31,40 L32,40 L32,37 L33,37 L33,34 L34,34 L34,31 L35,31 L35,28 L36,28 L36,25 L37,25 L37,22 L38,22 L38,19 L39,19 L39,16 L40,16 L40,13 L41,13 L41,10 L42,10 L42,7 L43,7 L43,4 L44,4 L44,1 L45,1 L45,0 L59,0 L59,55 L51,55 L51,10 L48,10 L48,11 L47,11 L47,14 L46,14 L46,17 L45,17 L45,20 L44,20 L44,24 L43,24 L43,27 L42,27 L42,30 L41,30 L41,33 L40,33 L40,36 L39,36 L39,39 L38,39 L38,43 L37,43 L37,45 L36,45 L36,48 L35,48 L35,51 L34,51 L34,54 L33,54 L33,55 L24,55 L24,53 L23,53 L23,50 L22,50 L22,48 L21,48 L21,43 L20,43 L20,40 L19,40 L19,37 L18,37 L18,34 L17,34 L17,30 L16,30 L16,27 L15,27 L15,24 L14,24 L14,21 L13,21 L13,17 L12,17 L12,14 L11,14 L11,11 L10,11 L10,9 L7,9 L7,21 L8,21 L8,56 L0,56 Z " transform="translate(17,12)" style="fill: #FF1C1C;"/><path d="M0,0 L24,0 L24,1 L29,1 L29,2 L32,2 L32,3 L34,3 L34,4 L35,4 L35,5 L36,5 L36,6 L37,6 L37,7 L38,7 L38,9 L39,9 L39,16 L38,16 L38,19 L37,19 L37,21 L36,21 L36,22 L35,22 L35,23 L34,23 L34,24 L30,24 L30,28 L33,28 L33,29 L36,29 L36,30 L37,30 L37,31 L38,31 L38,32 L39,32 L39,34 L40,34 L40,45 L39,45 L39,47 L38,47 L38,49 L37,49 L37,50 L36,50 L36,51 L35,51 L35,52 L33,52 L33,53 L31,53 L31,54 L29,54 L29,55 L22,55 L22,56 L0,56 Z M9,7 L9,23 L24,23 L24,22 L26,22 L26,21 L27,21 L27,20 L28,20 L28,19 L29,19 L29,11 L28,11 L28,10 L27,10 L27,9 L25,9 L25,8 L23,8 L23,7 Z M9,30 L9,48 L24,48 L24,47 L27,47 L27,46 L28,46 L28,45 L29,45 L29,44 L30,44 L30,34 L29,34 L29,33 L28,33 L28,32 L26,32 L26,31 L24,31 L24,30 Z " transform="translate(194,12)" style="fill: #FF1D1D;"/><path d="M0,0 L10,0 L10,1 L11,1 L11,3 L12,3 L12,5 L13,5 L13,7 L14,7 L14,9 L15,9 L15,11 L16,11 L16,13 L17,13 L17,15 L18,15 L18,17 L19,17 L19,19 L20,19 L20,21 L21,21 L21,23 L22,23 L22,25 L24,25 L24,23 L25,23 L25,21 L26,21 L26,19 L27,19 L27,17 L28,17 L28,15 L29,15 L29,13 L30,13 L30,11 L31,11 L31,9 L32,9 L32,8 L33,8 L33,5 L34,5 L34,3 L35,3 L35,1 L36,1 L36,0 L46,0 L46,1 L45,1 L45,3 L44,3 L44,5 L43,5 L43,6 L42,6 L42,8 L41,8 L41,10 L40,10 L40,12 L39,12 L39,14 L38,14 L38,16 L37,16 L37,18 L36,18 L36,19 L35,19 L35,21 L34,21 L34,23 L33,23 L33,25 L32,25 L32,27 L31,27 L31,29 L30,29 L30,30 L29,30 L29,32 L28,32 L28,55 L19,55 L19,34 L18,34 L18,32 L17,32 L17,30 L16,30 L16,29 L15,29 L15,27 L14,27 L14,25 L13,25 L13,23 L12,23 L12,21 L11,21 L11,19 L10,19 L10,17 L9,17 L9,16 L8,16 L8,14 L7,14 L7,12 L6,12 L6,10 L5,10 L5,8 L4,8 L4,6 L3,6 L3,4 L2,4 L2,3 L1,3 L1,1 L0,1 Z " transform="translate(112,12)" style="fill: #FF1C1C;"/><path d="M0,0 L17,0 L17,1 L18,1 L18,2 L19,2 L19,4 L20,4 L20,6 L21,6 L21,8 L22,8 L22,10 L23,10 L23,12 L24,12 L24,14 L25,14 L25,16 L26,16 L26,18 L27,18 L27,20 L28,20 L28,21 L29,21 L29,19 L30,19 L30,17 L31,17 L31,15 L32,15 L32,13 L33,13 L33,11 L34,11 L34,9 L35,9 L35,7 L36,7 L36,5 L37,5 L37,3 L38,3 L38,1 L39,1 L39,0 L56,0 L56,2 L55,2 L55,4 L54,4 L54,6 L53,6 L53,7 L52,7 L52,9 L51,9 L51,11 L50,11 L50,13 L49,13 L49,15 L48,15 L48,17 L47,17 L47,18 L46,18 L46,20 L45,20 L45,22 L44,22 L44,24 L43,24 L43,26 L42,26 L42,28 L41,28 L41,30 L40,30 L40,31 L39,31 L39,33 L38,33 L38,35 L37,35 L37,37 L36,37 L36,62 L20,62 L20,37 L19,37 L19,35 L18,35 L18,33 L17,33 L17,31 L16,31 L16,30 L15,30 L15,28 L14,28 L14,26 L13,26 L13,24 L12,24 L12,22 L11,22 L11,20 L10,20 L10,18 L9,18 L9,17 L8,17 L8,15 L7,15 L7,13 L6,13 L6,11 L5,11 L5,9 L4,9 L4,7 L3,7 L3,5 L2,5 L2,3 L1,3 L1,2 L0,2 Z M5,3 L5,4 L6,4 L6,6 L7,6 L7,7 L8,7 L8,9 L9,9 L9,11 L10,11 L10,13 L11,13 L11,15 L12,15 L12,17 L13,17 L13,19 L14,19 L14,20 L15,20 L15,22 L16,22 L16,24 L17,24 L17,26 L18,26 L18,28 L19,28 L19,30 L20,30 L20,32 L21,32 L21,33 L22,33 L22,35 L23,35 L23,37 L24,37 L24,58 L33,58 L33,35 L34,35 L34,33 L35,33 L35,32 L36,32 L36,30 L37,30 L37,28 L38,28 L38,26 L39,26 L39,24 L40,24 L40,22 L41,22 L41,21 L42,21 L42,19 L43,19 L43,17 L44,17 L44,15 L45,15 L45,13 L46,13 L46,11 L47,11 L47,9 L48,9 L48,8 L49,8 L49,6 L50,6 L50,4 L51,4 L51,3 L41,3 L41,4 L40,4 L40,6 L39,6 L39,8 L38,8 L38,11 L37,11 L37,12 L36,12 L36,14 L35,14 L35,16 L34,16 L34,18 L33,18 L33,20 L32,20 L32,22 L31,22 L31,24 L30,24 L30,26 L29,26 L29,28 L27,28 L27,26 L26,26 L26,24 L25,24 L25,22 L24,22 L24,20 L23,20 L23,18 L22,18 L22,16 L21,16 L21,14 L20,14 L20,12 L19,12 L19,10 L18,10 L18,8 L17,8 L17,6 L16,6 L16,4 L15,4 L15,3 Z " transform="translate(107,9)" style="fill: #FFDFDF;"/><path d="M0,0 L31,0 L31,1 L35,1 L35,2 L37,2 L37,3 L39,3 L39,4 L40,4 L40,5 L41,5 L41,6 L42,6 L42,7 L43,7 L43,8 L44,8 L44,11 L45,11 L45,22 L44,22 L44,24 L43,24 L43,26 L42,26 L42,27 L41,27 L41,28 L40,28 L40,30 L42,30 L42,31 L43,31 L43,32 L44,32 L44,34 L45,34 L45,36 L46,36 L46,39 L47,39 L47,47 L46,47 L46,50 L45,50 L45,52 L44,52 L44,54 L43,54 L43,55 L42,55 L42,56 L41,56 L41,57 L39,57 L39,58 L38,58 L38,59 L36,59 L36,60 L33,60 L33,61 L29,61 L29,62 L0,62 Z M3,3 L3,59 L25,59 L25,58 L32,58 L32,57 L34,57 L34,56 L36,56 L36,55 L38,55 L38,54 L39,54 L39,53 L40,53 L40,52 L41,52 L41,50 L42,50 L42,48 L43,48 L43,37 L42,37 L42,35 L41,35 L41,34 L40,34 L40,33 L39,33 L39,32 L36,32 L36,31 L33,31 L33,27 L37,27 L37,26 L38,26 L38,25 L39,25 L39,24 L40,24 L40,22 L41,22 L41,19 L42,19 L42,12 L41,12 L41,10 L40,10 L40,9 L39,9 L39,8 L38,8 L38,7 L37,7 L37,6 L35,6 L35,5 L32,5 L32,4 L27,4 L27,3 Z " transform="translate(191,9)" style="fill: #FFE9E9;"/><path d="M0,0 L15,0 L15,1 L17,1 L17,2 L19,2 L19,3 L20,3 L20,4 L21,4 L21,14 L20,14 L20,15 L19,15 L19,16 L18,16 L18,17 L15,17 L15,18 L0,18 Z M4,3 L4,15 L13,15 L13,14 L16,14 L16,13 L17,13 L17,12 L18,12 L18,6 L17,6 L17,5 L16,5 L16,4 L14,4 L14,3 Z " transform="translate(203,42)" style="fill: #FFE1E1;"/><path d="M0,0 L14,0 L14,1 L16,1 L16,2 L18,2 L18,3 L19,3 L19,4 L20,4 L20,12 L19,12 L19,13 L18,13 L18,14 L17,14 L17,15 L15,15 L15,16 L0,16 Z M4,4 L4,13 L12,13 L12,12 L15,12 L15,11 L16,11 L16,10 L17,10 L17,5 L15,5 L15,4 Z " transform="translate(203,19)" style="fill: #FFDDDD;"/><path d="M0,0 L10,0 L10,1 L12,1 L12,2 L13,2 L13,3 L14,3 L14,9 L13,9 L13,10 L12,10 L12,11 L9,11 L9,12 L0,12 Z " transform="translate(207,45)" style="fill: #2E0202;"/><path d="M0,0 L11,0 L11,1 L13,1 L13,6 L12,6 L12,7 L11,7 L11,8 L8,8 L8,9 L0,9 Z " transform="translate(207,23)" style="fill: #550101;"/></svg>