<?xml version="1.0" standalone="no"?>
<!DOCTYPE svg PUBLIC "-//W3C//DTD SVG 20010904//EN"
 "http://www.w3.org/TR/2001/REC-SVG-20010904/DTD/svg10.dtd">
<svg version="1.0" xmlns="http://www.w3.org/2000/svg"
 width="250.000000pt" height="120.000000pt" viewBox="0 0 250.000000 120.000000"
 preserveAspectRatio="xMidYMid meet">
<metadata>
Created by potrace 1.16, written by Peter Selinger 2001-2019
</metadata>
<g transform="translate(0.000000,120.000000) scale(0.100000,-0.100000)"
fill="#000000" stroke="none">
<path d="M380 605 l0 -275 42 0 41 0 -6 231 c-5 209 -4 230 11 227 12 -2 35
-65 86 -231 l70 -228 45 3 44 3 76 225 c101 298 106 298 102 -2 l-3 -228 41 0
41 0 0 275 0 275 -68 0 -67 0 -75 -225 c-55 -166 -79 -225 -89 -223 -9 2 -28
45 -49 113 -18 61 -49 161 -68 223 l-35 112 -70 0 -69 0 0 -275z"/>
<path d="M1130 874 c0 -4 41 -83 90 -175 l90 -168 0 -101 0 -100 45 0 45 0 0
111 0 111 71 132 c40 72 81 146 91 164 l20 32 -49 0 -48 0 -66 -132 -66 -133
-67 133 -66 132 -45 0 c-25 0 -45 -3 -45 -6z"/>
<path d="M1730 606 l0 -277 143 3 c162 3 206 18 239 78 37 70 13 160 -48 180
-41 14 -46 45 -9 54 35 9 57 47 57 100 2 100 -48 127 -244 134 l-138 5 0 -277z
m269 180 c32 -29 29 -88 -5 -115 -22 -17 -41 -21 -100 -21 l-74 0 0 81 0 81
79 -3 c60 -3 84 -9 100 -23z m12 -233 c33 -32 30 -99 -5 -130 -23 -20 -38 -23
-107 -23 l-79 0 0 91 0 91 85 -3 c70 -3 88 -8 106 -26z"/>
</g>
</svg>
